<svg xmlns="http://www.w3.org/2000/svg" xmlns:xlink="http://www.w3.org/1999/xlink" width="500" zoomAndPan="magnify" viewBox="0 0 375 374.999991" height="500" preserveAspectRatio="xMidYMid meet" version="1.0"><defs><clipPath id="db5caa7452"><path d="M 88.171875 85.363281 L 286.828125 85.363281 L 286.828125 126.023438 L 88.171875 126.023438 Z M 88.171875 85.363281 " clip-rule="nonzero"/></clipPath><clipPath id="b7da682cb2"><path d="M 130 88 L 188 88 L 188 290 L 130 290 Z M 130 88 " clip-rule="nonzero"/></clipPath><clipPath id="60d460ae85"><path d="M 187.496094 91.6875 L 170.667969 289.632812 L 130.15625 286.191406 L 146.980469 88.246094 Z M 187.496094 91.6875 " clip-rule="nonzero"/></clipPath></defs><rect x="-37.5" width="450" fill="#ffffff" y="-37.499999" height="449.999989" fill-opacity="1"/><rect x="-37.5" width="450" fill="#f4f4f4" y="-37.499999" height="449.999989" fill-opacity="1"/><g clip-path="url(#db5caa7452)"><path fill="#ef4e18" d="M 88.171875 85.363281 L 286.859375 85.363281 L 286.859375 126.023438 L 88.171875 126.023438 Z M 88.171875 85.363281 " fill-opacity="1" fill-rule="nonzero"/></g><g clip-path="url(#b7da682cb2)"><g clip-path="url(#60d460ae85)"><path fill="#ef4e18" d="M 187.496094 91.6875 L 170.664062 289.664062 L 130.152344 286.21875 L 146.980469 88.246094 Z M 187.496094 91.6875 " fill-opacity="1" fill-rule="nonzero"/></g></g></svg>